#!OML:ASF F:\twosubjects\two\Thursday\Session 1\justin.ASF
:FULLY-SPECIFIED
:DEGREES
559
root 21.5235 13.2346 3.07494 -170.894 -82.9313 153.565
lowerback 34.3316 0.788096 1.66868
upperback 17.3732 -1.06657 3.22388
thorax 1.65996 -1.70081 2.76176
lowerneck -19.7967 2.16072 -3.42967
upperneck 33.0788 1.33344 5.9953
head 14.6627 0.721588 3.24964
rclavicle 4.77083e-015 -3.97569e-014
rhumerus 3.60419 25.4771 -77.7506
rradius 75.9326
rwrist 4.12683
rhand -15.1197 23.9344
rfingers 7.12502
rthumb 11.0493 -5.75472
lclavicle 4.77083e-015 -3.97569e-014
lhumerus -5.34336 -18.8912 86.0453
lradius 72.4782
lwrist -17.2863
lhand -18.0881 31.9001
lfingers 7.12502
lthumb 8.18532 61.7216
rfemur -53.8252 -5.16628 13.0836
rtibia 66.0145
rfoot 5.72257 -3.45112
rtoes -5.2143
lfemur -48.9944 9.97646 -11.5462
ltibia 60.8303
lfoot 6.84772 -11.4673
ltoes -13.4216
560
root 21.5171 13.2266 3.07315 -170.356 -82.8533 153.137
lowerback 34.3642 0.844811 1.20002
upperback 17.2528 -1.11021 3.49511
thorax 1.51582 -1.76875 3.31001
lowerneck -19.6915 2.15924 -3.60066
upperneck 32.696 1.51322 5.78029
head 14.4528 0.758561 3.2036
rclavicle -9.54166e-015 -2.3059e-014
rhumerus 3.79654 25.9549 -77.2979
rradius 75.9313
rwrist 4.01357
rhand -14.9284 23.6498
rfingers 7.12502
rthumb 11.2338 -6.02945
lclavicle -9.54166e-015 -2.3059e-014
lhumerus -5.9185 -18.2748 86.5947
lradius 72.7519
lwrist -17.5613
lhand -18.3666 32.0455
lfingers 7.12502
lthumb 7.91647 61.8773
rfemur -53.9077 -5.27175 12.9717
rtibia 66.0907
rfoot 5.15243 -3.40771
rtoes -2.85344
lfemur -49.2129 10.8955 -11.8953
ltibia 60.7924
lfoot 6.79793 -12.1645
ltoes -13.2267
561
root 21.5144 13.2267 3.0752 -171.024 -82.7837 153.818
lowerback 34.4356 0.579541 0.445108
upperback 17.1645 -1.6766 3.87412
thorax 1.43082 -2.14238 4.27354
lowerneck -19.2722 2.45481 -4.57851
upperneck 32.0563 2.41705 5.57302
head 13.9961 1.01336 3.40333
rclavicle -1.27222e-014 5.64548e-014
rhumerus 4.29707 28.1077 -76.6832
rradius 75.9159
rwrist 3.27575
rhand -14.8774 23.6746
rfingers 7.12502
rthumb 11.283 -6.0019
lclavicle -1.27222e-014 5.64548e-014
lhumerus -6.76528 -16.2543 87.3462
lradius 73.1189
lwrist -17.9083
lhand -18.8748 32.7072
lfingers 7.12502
lthumb 7.42597 62.5569
rfemur -53.8517 -5.34524 13.0033
rtibia 66.2436
rfoot 4.23328 -2.9839
rtoes -1.34637
lfemur -49.1526 10.7128 -11.7455
ltibia 60.7851
lfoot 6.70512 -11.839
ltoes -13.6155
562
root 21.5141 13.2326 3.07668 -171.716 -82.7202 154.469
lowerback 34.5163 0.911121 1.50876
upperback 17.337 -0.962086 3.51812
thorax 1.55233 -1.68495 3.12979
lowerneck -20.0154 1.8039 -3.14226
upperneck 31.6737 1.04832 5.53163
head 14.1112 0.62119 2.91343
rclavicle -1.43125e-014 -5.08889e-014
rhumerus 3.95418 25.805 -77.2477
rradius 75.8379
rwrist 3.27126
rhand -15.1271 23.9577
rfingers 7.12502
rthumb 11.0422 -5.73187
lclavicle -1.43125e-014 -5.08889e-014
lhumerus -6.10485 -18.8177 86.7236
lradius 73.1609
lwrist -17.6175
lhand -18.8897 32.8702
lfingers 7.12502
lthumb 7.41165 62.7204
rfemur -53.9846 -5.47909 13.3802
rtibia 66.0757
rfoot 4.93209 -2.8894
rtoes -6.05873
lfemur -49.032 10.6489 -11.6418
ltibia 60.7866
lfoot 6.59867 -11.6398
ltoes -13.8344
563
root 21.5169 13.2411 3.07659 -171.186 -82.6666 154.061
lowerback 34.3785 0.562221 0.177997
upperback 17.1898 -1.7916 4.06519
thorax 1.49095 -2.23914 4.64721
lowerneck -19.4024 2.47421 -4.56109
upperneck 31.4224 2.65733 5.16911
head 13.742 1.09181 3.25674
rclavicle 1.90833e-014 -1.59028e-015
rhumerus 4.46548 28.795 -76.3634
rradius 75.7726
rwrist 3.14739
rhand -15.0387 24.0414
rfingers 7.12502
rthumb 11.1275 -5.64353
lclavicle 1.90833e-014 -1.59028e-015
lhumerus -7.0209 -15.8144 87.6631
lradius 73.408
lwrist -18.0253
lhand -19.0396 32.1046
lfingers 7.12502
lthumb 7.26693 61.9598
rfemur -53.9606 -5.22635 13.0229
rtibia 66.2246
rfoot 4.15067 -3.13024
rtoes -0.493372
lfemur -49.1189 10.6497 -11.7063
ltibia 60.7594
lfoot 6.66181 -11.6614
ltoes -13.6445
564
root 21.5127 13.2405 3.08206 -170.785 -82.6141 153.85
lowerback 34.4803 0.527077 1.50506
upperback 17.0612 -1.39379 3.24767
thorax 1.27821 -1.86355 2.97806
lowerneck -19.7189 2.11926 -3.19933
upperneck 31.2181 1.45489 5.81213
head 13.8166 0.83438 3.08144
rclavicle -6.36111e-015 4.92986e-014
rhumerus 3.67822 26.5697 -77.8448
rradius 75.659
rwrist 3.60277
rhand -15.0029 24.1827
rfingers 7.12502
rthumb 11.162 -5.5004
lclavicle -6.36111e-015 4.92986e-014
lhumerus -6.8575 -18.042 86.7437
lradius 73.3773
lwrist -18.0656
lhand -19.0547 32.1759
lfingers 7.12502
lthumb 7.25235 62.0316
rfemur -54.3381 -5.50323 13.3817
rtibia 66.0207
rfoot 5.07511 -2.6491
rtoes -7.01764
lfemur -49.3408 10.6706 -11.7762
ltibia 60.7702
lfoot 6.77647 -11.6819
ltoes -13.4828
